<svg id="Layer_1" data-name="Layer 1" xmlns="http://www.w3.org/2000/svg" xmlns:xlink="http://www.w3.org/1999/xlink" viewBox="0 0 304.48 49.63"><defs><style>.cls-1{fill:url(#linear-gradient);}.cls-2{fill:#fff;}.cls-3{mask:url(#mask);}</style><linearGradient id="linear-gradient" x1="44.58" y1="48.15" x2="67.66" y2="57.64" gradientTransform="translate(27.2 -20.79) rotate(23.02)" gradientUnits="userSpaceOnUse"><stop offset="0" stop-color="#fff"/><stop offset="1" stop-color="#3f3e3e"/></linearGradient><mask id="mask" x="-1.66" y="-19.63" width="73.87" height="83.04" maskUnits="userSpaceOnUse"><g transform="translate(-29.37 -34.51)"><rect class="cls-1" x="39.06" y="22.16" width="51.17" height="68.48" transform="translate(-16.91 29.77) rotate(-23.02)"/></g></mask></defs><title>webdock-logo-hvid</title><path class="cls-2" d="M92,34.51H90.54a1.09,1.09,0,0,0-1,.67L69.79,82.63a1.09,1.09,0,0,0,1,1.51H79a9.25,9.25,0,0,0,8.54-5.69l13-31.14A9.25,9.25,0,0,0,92,34.51Z" transform="translate(-29.37 -34.51)"/><path class="cls-2" d="M85,34.51H71.3a1.09,1.09,0,0,0-1,.67L50.54,82.63a1.09,1.09,0,0,0,1,1.51H65.23a1.09,1.09,0,0,0,1-.67L86,36A1.09,1.09,0,0,0,85,34.51Z" transform="translate(-29.37 -34.51)"/><g class="cls-3"><path class="cls-2" d="M65.72,38.35,64.4,35.17a1.07,1.07,0,0,0-1-.66H49.68a1.07,1.07,0,0,0-1,1.48l8.19,19.67a1.07,1.07,0,0,0,2,0l6.86-16.49A1.07,1.07,0,0,0,65.72,38.35Z" transform="translate(-29.37 -34.51)"/><path class="cls-2" d="M45.15,35.17a1.07,1.07,0,0,0-1-.66H30.44a1.07,1.07,0,0,0-1,1.48L47.26,78.78a1.07,1.07,0,0,0,2,0L56.1,62.29a1.07,1.07,0,0,0,0-.82Z" transform="translate(-29.37 -34.51)"/></g><path class="cls-2" d="M143.38,45.78h4l4.41,11.6,4.46-11.6h4l-5.77,14.51L160.18,74l11.27-28.45H176L162.11,78.92h-3.66l-6.62-15.73-6.67,15.73H141.5L127.6,45.59h4.55L143.47,74l5.68-13.75Z" transform="translate(-29.37 -34.51)"/><path class="cls-2" d="M186.21,79.39a12.49,12.49,0,0,1-5.07-1,12,12,0,0,1-3.94-2.75,12.51,12.51,0,0,1-2.56-4.06,13.26,13.26,0,0,1-.92-4.91,13.08,13.08,0,0,1,.92-4.88,12.39,12.39,0,0,1,2.58-4,12.26,12.26,0,0,1,4-2.75,12.47,12.47,0,0,1,5.07-1,11.92,11.92,0,0,1,11.39,7.77,13.14,13.14,0,0,1,.87,4.72q0,.52,0,.94a5,5,0,0,1-.07.66H178.09a9.5,9.5,0,0,0,.85,3.33A8.57,8.57,0,0,0,180.77,74a8.44,8.44,0,0,0,2.56,1.69,7.63,7.63,0,0,0,3,.61,8.06,8.06,0,0,0,2.21-.31,9.56,9.56,0,0,0,2-.82,7,7,0,0,0,1.67-1.27,5.19,5.19,0,0,0,1.1-1.69l3.57,1a9,9,0,0,1-1.67,2.49,11.07,11.07,0,0,1-2.44,1.95,12.59,12.59,0,0,1-3.07,1.29A13.12,13.12,0,0,1,186.21,79.39ZM194.62,65a8.84,8.84,0,0,0-.87-3.22,8.63,8.63,0,0,0-1.83-2.51,8.4,8.4,0,0,0-8.76-1.62,8,8,0,0,0-2.56,1.64,8.31,8.31,0,0,0-1.78,2.51A9.24,9.24,0,0,0,178,65Z" transform="translate(-29.37 -34.51)"/><path class="cls-2" d="M215,79.39A9.93,9.93,0,0,1,209.8,78a10.64,10.64,0,0,1-3.71-3.66v4.6h-3.66V44.65h4.13V59.3a12.76,12.76,0,0,1,3.8-3.85,10.19,10.19,0,0,1,9.81-.38,11.24,11.24,0,0,1,3.45,2.84A12.85,12.85,0,0,1,225.83,62a15,15,0,0,1,.77,4.76,13.39,13.39,0,0,1-.89,4.88,12.84,12.84,0,0,1-2.44,4,11.59,11.59,0,0,1-3.69,2.72A10.59,10.59,0,0,1,215,79.39Zm-1-3.57a7.64,7.64,0,0,0,3.38-.75,8.5,8.5,0,0,0,2.68-2,9.18,9.18,0,0,0,1.74-2.89,9.6,9.6,0,0,0,.61-3.4,10.32,10.32,0,0,0-.59-3.45,9.44,9.44,0,0,0-1.64-2.93,8.26,8.26,0,0,0-2.54-2,6.92,6.92,0,0,0-3.26-.77,6.64,6.64,0,0,0-2.49.47,9.14,9.14,0,0,0-2.18,1.24,9.28,9.28,0,0,0-1.78,1.81,13.12,13.12,0,0,0-1.34,2.21v7.09a5.06,5.06,0,0,0,1,2.16,8.28,8.28,0,0,0,1.83,1.71,9.56,9.56,0,0,0,2.25,1.15A7,7,0,0,0,214,75.82Z" transform="translate(-29.37 -34.51)"/><path class="cls-2" d="M241.18,79.39a10.75,10.75,0,0,1-4.69-1,11.63,11.63,0,0,1-3.71-2.77,12.76,12.76,0,0,1-2.42-4,13.57,13.57,0,0,1-.87-4.84,14.61,14.61,0,0,1,.82-4.91,12.76,12.76,0,0,1,2.3-4.06A11,11,0,0,1,236.13,55a10,10,0,0,1,4.48-1,9.3,9.3,0,0,1,5.28,1.55,12.23,12.23,0,0,1,3.69,3.76V44.65h4.13v29.2q0,1.46,1.32,1.5v3.57l-1.06.14a6.79,6.79,0,0,1-.77,0,3.1,3.1,0,0,1-2.14-.82,2.49,2.49,0,0,1-.92-1.9V74.32a10.55,10.55,0,0,1-9,5.07Zm1-3.57a7,7,0,0,0,2.32-.42,9,9,0,0,0,2.25-1.17,8.46,8.46,0,0,0,1.83-1.76,5.26,5.26,0,0,0,1-2.14v-7a7.8,7.8,0,0,0-1.27-2.23,10,10,0,0,0-1.9-1.83A9.24,9.24,0,0,0,244.16,58a6.76,6.76,0,0,0-2.37-.45,7,7,0,0,0-3.31.77,8.11,8.11,0,0,0-2.54,2.07,9.36,9.36,0,0,0-1.62,3,10.55,10.55,0,0,0-.56,3.4,9.44,9.44,0,0,0,.66,3.5,9.17,9.17,0,0,0,1.78,2.89,8.61,8.61,0,0,0,2.65,1.95A7.58,7.58,0,0,0,242.16,75.82Z" transform="translate(-29.37 -34.51)"/><path class="cls-2" d="M270.35,79.39a12,12,0,0,1-8.94-3.8,12.45,12.45,0,0,1-2.51-4,13.26,13.26,0,0,1-.89-4.84,13.08,13.08,0,0,1,.92-4.88,12.81,12.81,0,0,1,2.54-4,12.1,12.1,0,0,1,3.9-2.77,12,12,0,0,1,5-1,12.12,12.12,0,0,1,8.94,3.8,12.81,12.81,0,0,1,2.54,4,13.1,13.1,0,0,1,.92,4.88,13.26,13.26,0,0,1-.89,4.84,12.18,12.18,0,0,1-6.46,6.81A12.09,12.09,0,0,1,270.35,79.39Zm-8.12-12.63a9.83,9.83,0,0,0,.63,3.57,9.11,9.11,0,0,0,1.74,2.86,8.2,8.2,0,0,0,2.58,1.92,7.49,7.49,0,0,0,6.34,0,8.31,8.31,0,0,0,2.61-1.95,9.11,9.11,0,0,0,1.76-2.91,10,10,0,0,0,.63-3.59,9.89,9.89,0,0,0-.63-3.54,9.12,9.12,0,0,0-1.76-2.91,8.32,8.32,0,0,0-2.61-1.95,7.27,7.27,0,0,0-3.17-.7,7.09,7.09,0,0,0-3.17.73,8.36,8.36,0,0,0-2.58,2,9.35,9.35,0,0,0-1.74,2.91A10,10,0,0,0,262.23,66.76Z" transform="translate(-29.37 -34.51)"/><path class="cls-2" d="M285.46,66.62a13.4,13.4,0,0,1,.89-4.88,12,12,0,0,1,2.54-4A12.23,12.23,0,0,1,292.81,55a12.43,12.43,0,0,1,5.09-1,11.88,11.88,0,0,1,6.31,1.62,10.52,10.52,0,0,1,4,4.34l-4,1.27a6.72,6.72,0,0,0-2.63-2.7,7.46,7.46,0,0,0-3.76-1A7.68,7.68,0,0,0,292,60.14,9.37,9.37,0,0,0,290.32,63a10.44,10.44,0,0,0,0,7.23,9.63,9.63,0,0,0,1.76,2.93,8,8,0,0,0,2.58,1.95,7.28,7.28,0,0,0,3.17.7,7.64,7.64,0,0,0,2.14-.3,8.2,8.2,0,0,0,1.92-.82,7.3,7.3,0,0,0,1.53-1.2,4.08,4.08,0,0,0,.94-1.48l4,1.22a8.7,8.7,0,0,1-1.57,2.49,9.85,9.85,0,0,1-2.37,1.92,13,13,0,0,1-6.53,1.74,12.23,12.23,0,0,1-9-3.8,12.51,12.51,0,0,1-2.56-4.06A13.25,13.25,0,0,1,285.46,66.62Z" transform="translate(-29.37 -34.51)"/><path class="cls-2" d="M329.38,78.92l-8.45-12-4.69,4.41v7.56h-4.13V44.65h4.13V67.18l12.58-12.72h4.55L323.61,64.6l10.23,14.32Z" transform="translate(-29.37 -34.51)"/></svg>