<?xml version="1.0" standalone="no"?>
<!DOCTYPE svg PUBLIC "-//W3C//DTD SVG 20010904//EN"
 "http://www.w3.org/TR/2001/REC-SVG-20010904/DTD/svg10.dtd">
<svg version="1.0" xmlns="http://www.w3.org/2000/svg"
 width="192.000000pt" height="192.000000pt" viewBox="0 0 192.000000 192.000000"
 preserveAspectRatio="xMidYMid meet">
<metadata>
Created by potrace 1.14, written by Peter Selinger 2001-2017
</metadata>
<g transform="translate(0.000000,192.000000) scale(0.100000,-0.100000)"
fill="#000000" stroke="none">
<path d="M11 1601 c-6 -11 40 -131 151 -396 88 -209 162 -390 165 -402 3 -13
8 -23 12 -23 4 0 13 -20 20 -45 7 -25 17 -45 23 -45 5 0 6 -4 3 -10 -3 -5 -1
-10 4 -10 6 0 10 -3 9 -7 -5 -19 48 -144 66 -155 6 -4 17 0 25 10 13 16 13 16
7 -2 -5 -14 -2 -17 10 -12 8 3 18 6 20 6 2 0 4 5 4 11 0 5 -4 7 -10 4 -5 -3
-10 -1 -10 5 0 7 6 10 13 7 9 -3 14 4 14 23 0 24 -3 27 -18 17 -10 -6 -17 -15
-16 -21 1 -5 -7 -11 -18 -13 l-20 -3 20 9 c11 5 16 10 10 11 -5 0 1 10 15 21
21 17 22 20 5 15 -15 -4 -13 0 8 15 22 17 25 24 16 35 -7 9 -7 14 -1 14 17 0
22 -29 6 -44 -9 -9 -10 -17 -4 -21 5 -3 10 -4 10 0 0 3 9 1 20 -5 14 -7 20 -7
21 0 1 5 2 14 3 19 0 5 4 13 9 17 11 11 9 36 -3 29 -6 -4 -8 -11 -5 -16 4 -5
-1 -12 -10 -15 -13 -6 -14 -8 -3 -15 9 -6 9 -9 1 -9 -18 0 -26 19 -10 26 7 2
14 12 14 20 0 8 -6 13 -13 10 -9 -3 -11 1 -7 11 4 11 2 14 -5 9 -20 -12 -13 2
13 29 28 27 45 34 25 10 -7 -9 -10 -18 -7 -21 3 -3 12 3 19 15 7 12 18 21 25
21 7 0 13 7 13 16 0 8 -5 12 -10 9 -6 -4 -25 -8 -43 -11 -23 -2 -28 -1 -17 6
8 5 11 10 6 10 -5 0 1 11 14 25 19 21 21 25 7 25 -9 0 -17 -4 -17 -10 0 -5 -4
-10 -10 -10 -19 0 -10 19 12 26 15 4 25 1 34 -10 7 -11 15 -13 18 -7 4 6 -2
16 -14 23 -11 7 -20 19 -20 26 0 7 -5 10 -10 7 -5 -3 -10 -1 -10 4 0 20 16 11
39 -20 13 -17 25 -28 28 -25 4 3 -2 15 -12 26 -10 11 -14 20 -9 20 5 0 1 5 -9
11 -9 6 -14 15 -11 21 5 7 2 9 -8 6 -8 -4 -15 0 -15 7 0 10 5 11 19 4 10 -6
16 -14 13 -20 -4 -5 1 -9 10 -9 11 0 15 -5 12 -14 -3 -7 0 -19 6 -25 13 -13
47 -15 47 -2 0 5 -8 8 -17 7 -14 -1 -18 7 -18 29 0 17 -4 36 -9 44 -6 10 -6
12 2 7 7 -4 12 -2 12 3 0 6 5 11 12 11 9 0 9 -3 0 -12 -10 -10 -8 -15 9 -24
14 -7 18 -14 10 -18 -6 -4 -11 -2 -11 4 0 6 -5 8 -10 5 -8 -5 -7 -12 2 -23 10
-12 10 -14 1 -8 -7 4 -13 2 -13 -3 0 -6 3 -11 8 -11 10 0 39 20 28 20 -5 0 -3
6 3 14 9 10 8 16 -4 26 -8 7 -12 16 -9 22 3 5 -1 20 -10 33 -9 13 -16 31 -16
40 0 10 -5 13 -12 9 -7 -5 -9 -2 -5 8 3 9 -1 28 -9 43 -7 14 -18 44 -24 66 -6
22 -15 37 -20 34 -6 -3 -7 1 -4 9 3 9 1 16 -5 16 -6 0 -8 6 -5 14 3 8 1 17 -5
21 -6 3 -11 15 -11 26 0 10 -4 19 -10 19 -5 0 -10 8 -10 18 0 19 -115 299
-131 318 -7 9 -64 12 -205 12 -168 -1 -196 -3 -203 -17z m530 -554 c-10 -9
-11 -8 -5 6 3 10 9 15 12 12 3 -3 0 -11 -7 -18z m72 -24 c-7 -2 -9 -12 -6 -21
6 -18 5 -17 -14 8 -10 13 -8 16 10 17 12 0 17 -1 10 -4z m12 -43 c-3 -5 0 -10
7 -10 10 0 10 -2 0 -9 -8 -4 -13 -12 -12 -17 1 -5 -4 -10 -12 -12 -8 -2 -9 -1
-3 5 6 4 10 15 10 23 -1 17 4 30 11 30 3 0 2 -4 -1 -10z m-55 -20 c0 -5 -5
-10 -11 -10 -5 0 -7 5 -4 10 3 6 8 10 11 10 2 0 4 -4 4 -10z m100 1 c0 -5 -7
-11 -14 -14 -10 -4 -13 -1 -9 9 6 15 23 19 23 5z m-135 -21 c3 -6 -1 -7 -9 -4
-18 7 -21 14 -7 14 6 0 13 -4 16 -10z m115 -45 c0 -5 -5 -3 -10 5 -5 8 -10 20
-10 25 0 6 5 3 10 -5 5 -8 10 -19 10 -25z m-90 -14 c0 -5 -7 -12 -16 -15 -14
-5 -15 -4 -4 9 14 17 20 19 20 6z m-70 -21 c0 -5 -2 -10 -4 -10 -3 0 -8 5 -11
10 -3 6 -1 10 4 10 6 0 11 -4 11 -10z m-45 -19 c3 -5 2 -12 -3 -15 -5 -3 -9 1
-9 9 0 17 3 19 12 6z m78 -6 c4 -8 3 -16 -1 -19 -4 -3 -9 4 -9 15 -2 23 3 25
10 4z m62 6 c3 -5 0 -13 -6 -17 -7 -4 -9 -3 -5 4 3 6 -2 13 -11 15 -16 4 -16
5 -1 6 9 0 19 -3 23 -8z m-94 -18 c13 -16 12 -17 -3 -4 -10 7 -18 15 -18 17 0
8 8 3 21 -13z m-5 -49 c1 -9 0 -13 -4 -10 -3 4 -7 14 -8 22 -1 9 0 13 4 10 3
-4 7 -14 8 -22z m61 1 c5 -4 3 -5 -4 -2 -6 4 -13 2 -15 -4 -2 -7 -8 -6 -16 3
-9 12 -8 14 8 13 11 -1 23 -5 27 -10z m18 -14 c-3 -6 -11 -11 -16 -11 -5 0 -4
6 3 14 14 16 24 13 13 -3z m-38 -26 c0 -8 -4 -12 -9 -9 -4 3 -8 9 -8 15 0 5 4
9 8 9 5 0 9 -7 9 -15z m53 -9 c0 -3 -4 -8 -10 -11 -5 -3 -10 -1 -10 4 0 6 5
11 10 11 6 0 10 -2 10 -4z m-32 -18 c-2 -6 -15 -13 -29 -15 -18 -2 -20 -1 -9
6 8 5 18 7 22 5 4 -3 8 0 8 5 0 6 3 11 6 11 3 0 4 -5 2 -12z m-63 -16 c-3 -3
-11 0 -18 7 -9 10 -8 11 6 5 10 -3 15 -9 12 -12z m-61 -18 c3 -8 2 -12 -4 -9
-6 3 -10 10 -10 16 0 14 7 11 14 -7z m66 2 c0 -2 -9 -6 -20 -9 -11 -3 -18 -1
-14 4 5 9 34 13 34 5z m34 -33 c4 -10 4 -14 0 -10 -4 4 -12 -1 -19 -10 -9 -13
-14 -13 -20 -3 -5 8 -4 11 3 6 6 -3 13 3 17 14 8 24 11 25 19 3z m-49 -2 c-9
-8 -36 -10 -30 -2 2 4 11 8 20 8 8 0 13 -3 10 -6z m-36 -45 c9 -11 9 -16 -1
-22 -7 -4 -10 -4 -6 1 4 4 3 14 -3 22 -6 7 -9 13 -6 13 2 0 10 -6 16 -14z m51
-7 c0 -5 -8 -9 -17 -8 -11 0 -13 3 -5 6 6 2 9 10 6 15 -4 7 -2 8 4 4 7 -4 12
-11 12 -17z m-26 -34 c-4 -8 -8 -15 -10 -15 -2 0 -4 7 -4 15 0 8 4 15 10 15 5
0 7 -7 4 -15z"/>
<path d="M526 1613 c-9 -9 -7 -28 6 -60 6 -15 11 -31 10 -35 -1 -5 3 -8 9 -8
5 0 7 -4 4 -10 -3 -5 -1 -10 4 -10 6 0 10 -3 9 -7 -4 -14 26 -83 35 -83 4 0 6
-4 3 -8 -2 -4 1 -21 9 -37 7 -17 15 -38 19 -47 3 -12 11 -16 23 -12 14 5 15 4
4 -4 -21 -15 6 -71 32 -66 11 2 16 0 13 -4 -4 -4 -12 -8 -17 -8 -5 -1 -12 -2
-16 -3 -4 0 2 -8 13 -17 10 -8 12 -13 4 -9 -10 4 -9 2 2 -8 10 -8 15 -17 11
-20 -3 -4 0 -13 6 -21 7 -8 14 -27 17 -42 7 -39 32 -56 54 -35 9 9 15 19 13
24 -2 4 1 7 7 7 6 0 9 4 6 8 -3 5 1 20 9 35 8 15 12 28 9 28 -2 1 -7 2 -11 4
-33 9 -44 18 -31 26 7 5 18 9 23 9 6 0 3 -5 -5 -10 -8 -5 -13 -10 -10 -11 3 0
16 -2 29 -5 20 -4 22 -2 11 10 -6 9 -9 20 -5 27 5 8 1 9 -13 5 -24 -8 -36 7
-27 35 5 15 12 18 27 13 13 -4 18 -2 14 4 -3 6 -3 17 0 26 5 13 9 14 20 5 16
-13 18 -1 5 20 -7 11 -13 9 -29 -7 -16 -16 -22 -18 -26 -6 -3 7 -2 13 2 12 4
-1 15 2 25 7 14 6 15 10 5 24 -8 11 -5 10 10 -3 12 -11 22 -14 22 -8 0 6 -5
14 -11 17 -7 5 -4 14 7 26 21 23 8 25 -18 3 -16 -16 -18 -16 -24 0 -8 22 3 49
17 40 8 -4 9 1 5 17 -6 20 -5 21 4 6 12 -19 4 -41 -11 -32 -5 4 -9 -4 -9 -16
0 -21 1 -21 19 -5 21 19 68 28 77 15 6 -10 -31 -31 -40 -22 -3 3 -6 2 -6 -4 0
-18 13 -23 29 -10 14 10 14 10 3 -5 -8 -9 -9 -19 -4 -22 8 -5 14 6 26 44 1 3
4 10 7 15 4 6 3 19 -2 30 -4 11 -8 15 -8 9 -1 -6 -14 -10 -30 -10 -17 0 -27 4
-24 8 3 5 11 7 17 5 7 -3 19 -1 27 3 8 5 19 4 26 -2 9 -7 13 -7 13 0 0 6 -5
14 -10 17 -6 4 -8 11 -5 16 4 5 1 9 -5 9 -6 0 -8 5 -5 10 4 6 15 8 25 5 14 -4
17 -1 15 12 -2 10 -4 19 -5 21 -2 1 -3 5 -4 10 -7 24 -31 62 -40 63 -47 5
-385 7 -390 2z m379 -43 c-3 -5 -1 -11 4 -14 5 -4 11 -1 14 6 2 7 2 3 0 -9 -2
-16 1 -21 11 -17 8 3 17 1 21 -5 3 -6 0 -9 -7 -6 -8 3 -24 -6 -36 -20 -26 -30
-28 -39 -6 -31 9 3 12 2 9 -5 -4 -6 -14 -8 -22 -5 -9 4 -22 1 -29 -5 -9 -7
-14 -8 -14 -1 0 5 7 13 16 16 8 3 13 10 10 15 -8 13 4 41 17 41 7 0 7 -4 -1
-12 -20 -20 -13 -32 8 -13 19 17 19 20 5 42 -9 12 -12 23 -8 23 4 0 -2 7 -13
16 -18 14 -18 15 4 4 12 -6 20 -15 17 -20z m-38 5 c5 -4 2 -5 -4 -1 -14 8 -16
5 -7 -18 3 -8 12 -12 20 -9 8 3 14 3 14 0 0 -3 -6 -7 -14 -10 -7 -3 -22 7 -34
22 -19 26 -19 27 -1 26 10 -1 22 -5 26 -10z m-60 -8 c0 -8 -6 -14 -14 -14 -9
0 -10 4 -2 14 6 7 12 13 14 13 1 0 2 -6 2 -13z m-62 -27 c3 -5 1 -10 -4 -10
-6 0 -11 5 -11 10 0 6 2 10 4 10 3 0 8 -4 11 -10z m46 -17 c13 -16 12 -17 -3
-4 -10 7 -18 15 -18 17 0 8 8 3 21 -13z m63 -2 c3 -5 -1 -11 -9 -14 -9 -4 -12
-1 -8 9 6 16 10 17 17 5z m-24 -43 c0 -6 -3 -8 -7 -5 -3 4 -11 2 -18 -3 -8 -7
-12 -6 -12 3 0 7 9 14 19 14 10 1 18 -3 18 -9z m-69 -32 c-15 -15 -24 -17 -32
-9 -8 8 -6 11 7 10 11 -1 18 3 17 9 -1 6 5 11 13 11 12 0 10 -5 -5 -21z m44
-14 c-3 -3 -11 0 -18 7 -9 10 -8 11 6 5 10 -3 15 -9 12 -12z m-125 -27 c-7 -8
-17 -15 -23 -15 -6 0 -2 7 9 15 25 19 30 19 14 0z m100 -6 c0 -4 -6 -9 -13
-12 -8 -3 -14 0 -14 7 0 7 6 13 14 13 7 0 13 -4 13 -8z m-28 -61 c-8 -8 -9 -4
-5 13 4 13 8 18 11 10 2 -7 -1 -18 -6 -23z m-82 2 c0 -5 -5 -10 -11 -10 -5 0
-7 5 -4 10 3 6 8 10 11 10 2 0 4 -4 4 -10z m54 1 c3 -5 -2 -15 -12 -22 -15
-12 -16 -12 -5 2 7 9 10 19 6 22 -3 4 -4 7 0 7 3 0 8 -4 11 -9z m86 -1 c0 -5
-4 -10 -10 -10 -5 0 -10 5 -10 10 0 6 5 10 10 10 6 0 10 -4 10 -10z m-77 -50
c-3 -12 -8 -19 -11 -16 -5 6 5 36 12 36 2 0 2 -9 -1 -20z m52 0 c0 -7 -6 -14
-13 -16 -7 -1 -8 0 -2 3 5 2 10 9 10 14 0 6 -4 8 -9 4 -5 -3 -12 -1 -15 4 -4
5 2 8 11 7 10 -2 18 -9 18 -16z m-42 -32 c-2 -5 -10 -8 -18 -8 -8 0 -16 3 -18
8 -3 4 5 7 18 7 13 0 21 -3 18 -7z m24 -34 c-3 -3 -12 -4 -19 -1 -8 3 -5 6 6
6 11 1 17 -2 13 -5z m0 -29 c-7 -7 -14 -9 -15 -4 -2 5 -8 7 -13 3 -5 -3 -9 -1
-9 4 0 5 11 10 24 10 19 0 22 -3 13 -13z m18 -36 c4 -6 14 -8 24 -5 12 5 11 2
-3 -9 -11 -8 -17 -18 -13 -21 8 -8 -21 -64 -33 -64 -5 0 -14 9 -20 19 -8 17
-7 19 15 17 19 -3 24 1 22 16 -2 10 -9 24 -15 30 -7 7 -12 16 -12 20 0 12 28
10 35 -3z m-37 -21 c15 -15 16 -31 1 -26 -6 2 -10 8 -9 13 1 5 -7 12 -17 16
-14 6 -14 8 -2 8 8 1 20 -4 27 -11z"/>
<path d="M765 1150 c3 -5 11 -10 16 -10 6 0 7 5 4 10 -3 6 -11 10 -16 10 -6 0
-7 -4 -4 -10z"/>
<path d="M750 1080 c0 -5 5 -10 10 -10 6 0 10 5 10 10 0 6 -4 10 -10 10 -5 0
-10 -4 -10 -10z"/>
<path d="M1104 1612 c-6 -4 -30 -54 -54 -112 -45 -110 -122 -294 -145 -345 -7
-16 -52 -124 -99 -240 -48 -116 -93 -223 -101 -240 -7 -16 -23 -53 -34 -81
-11 -28 -28 -71 -39 -95 -11 -24 -25 -57 -32 -74 -7 -16 -19 -44 -26 -62 -24
-56 -13 -59 207 -58 l194 0 19 40 c17 37 144 338 323 770 41 99 81 194 88 210
67 148 112 271 103 283 -8 9 -61 12 -202 12 -105 0 -196 -4 -202 -8z"/>
<path d="M1601 1594 c-7 -16 -47 -110 -88 -209 -41 -99 -80 -191 -86 -205 -5
-14 -11 -27 -12 -30 -1 -3 -9 -23 -19 -45 -10 -22 -40 -96 -68 -165 -28 -69
-53 -129 -57 -135 -3 -5 -6 -12 -7 -15 -1 -7 -41 -103 -156 -375 -17 -40 -27
-79 -24 -91 6 -21 10 -22 158 -20 124 2 160 6 188 21 41 20 110 90 110 111 0
8 5 14 10 14 6 0 10 8 10 18 0 10 3 22 8 26 4 4 7 11 8 14 0 4 8 25 18 47 10
22 24 56 31 75 7 19 22 55 33 80 11 25 44 101 72 170 53 129 72 174 96 224 8
16 14 33 14 37 0 5 11 32 24 61 47 107 48 110 48 178 0 66 -19 113 -64 162
-46 49 -89 69 -167 75 -66 5 -67 5 -80 -23z"/>
<path d="M943 1484 c0 -16 13 -19 21 -5 3 5 0 11 -7 14 -8 3 -14 -1 -14 -9z"/>
<path d="M871 1344 c15 -16 18 -23 7 -19 -12 5 -16 1 -14 -19 1 -27 16 -37 16
-12 0 8 6 16 12 18 15 5 -16 58 -34 58 -6 0 -1 -11 13 -26z"/>
<path d="M830 1280 c0 -5 5 -10 10 -10 6 0 10 5 10 10 0 6 -4 10 -10 10 -5 0
-10 -4 -10 -10z"/>
<path d="M835 1257 c-19 -15 -13 -37 11 -37 8 0 14 9 14 19 0 11 6 22 13 24 8
4 7 6 -4 6 -8 1 -23 -5 -34 -12z m15 -17 c0 -5 -5 -10 -11 -10 -5 0 -7 5 -4
10 3 6 8 10 11 10 2 0 4 -4 4 -10z"/>
<path d="M795 1247 c-4 -10 -5 -21 -1 -24 10 -10 18 4 13 24 -4 17 -4 17 -12
0z"/>
<path d="M830 1199 c0 -5 5 -7 10 -4 6 3 10 8 10 11 0 2 -4 4 -10 4 -5 0 -10
-5 -10 -11z"/>
<path d="M657 800 c-9 -11 -23 -17 -30 -14 -8 3 -19 -2 -26 -9 -9 -12 -8 -16
4 -21 9 -3 13 -2 10 4 -4 6 7 8 25 6 17 -2 29 -1 26 2 -3 2 -1 13 5 24 15 27
6 32 -14 8z"/>
<path d="M616 701 c-11 -12 -25 -17 -34 -13 -14 5 -15 3 -4 -10 8 -10 21 -14
35 -10 12 3 16 7 9 10 -8 2 -4 10 10 23 13 10 18 18 12 19 -6 0 -19 -9 -28
-19z"/>
<path d="M546 573 c-4 -9 -2 -19 4 -23 7 -4 1 -17 -15 -34 -18 -20 -23 -32
-16 -40 7 -8 4 -12 -9 -13 -11 -1 -22 2 -25 8 -4 5 2 6 12 2 15 -5 16 -3 6 7
-15 16 -43 22 -43 9 0 -5 9 -18 19 -28 11 -11 17 -22 13 -25 -3 -3 0 -6 6 -6
7 0 12 5 12 11 0 5 5 7 10 4 10 -6 14 6 11 38 -1 9 3 17 9 17 6 0 8 -5 4 -12
-4 -7 -3 -8 4 -4 6 4 9 13 5 21 -3 8 0 15 7 15 6 0 9 4 5 9 -3 5 1 16 9 23 12
13 11 16 -4 26 -15 9 -19 8 -24 -5z"/>
</g>
</svg>
