<svg width="19" height="18" viewBox="0 0 19 18" fill="none" xmlns="http://www.w3.org/2000/svg">
<path d="M11.5658 14.91C11.5958 15.135 11.5208 15.375 11.3483 15.5325C11.2789 15.602 11.1965 15.6572 11.1057 15.6948C11.015 15.7325 10.9177 15.7518 10.8195 15.7518C10.7213 15.7518 10.624 15.7325 10.5333 15.6948C10.4426 15.6572 10.3602 15.602 10.2908 15.5325L7.28327 12.525C7.20147 12.445 7.13928 12.3472 7.10155 12.2392C7.06381 12.1313 7.05157 12.016 7.06577 11.9025V8.0625L3.47327 3.465C3.35148 3.30865 3.29652 3.11044 3.32041 2.9137C3.3443 2.71695 3.4451 2.53766 3.60077 2.415C3.74327 2.31 3.90077 2.25 4.06577 2.25H14.5658C14.7308 2.25 14.8883 2.31 15.0308 2.415C15.1864 2.53766 15.2872 2.71695 15.3111 2.9137C15.335 3.11044 15.2801 3.30865 15.1583 3.465L11.5658 8.0625V14.91ZM5.59577 3.75L8.56577 7.545V11.685L10.0658 13.185V7.5375L13.0358 3.75H5.59577Z" fill="white"/>
</svg>
