<svg width="18" height="19" viewBox="0 0 18 19" fill="none" xmlns="http://www.w3.org/2000/svg">
<path fill-rule="evenodd" clip-rule="evenodd" d="M4.34529 5.25145C3.92737 5.66937 3.59586 6.16552 3.36969 6.71155C3.14351 7.25759 3.0271 7.84283 3.0271 8.43386C3.0271 9.02488 3.14351 9.61012 3.36969 10.1562C3.59586 10.7022 3.92737 11.1983 4.34529 11.6163C4.76321 12.0342 5.25935 12.3657 5.80539 12.5919C6.35143 12.818 6.93667 12.9344 7.52769 12.9344C8.11872 12.9344 8.70396 12.818 9.25 12.5919C9.79603 12.3657 10.2922 12.0342 10.7101 11.6163C11.5298 10.7675 11.9834 9.63084 11.9731 8.45095C11.9629 7.27106 11.4896 6.14241 10.6553 5.30807C9.82094 4.47373 8.69228 4.00047 7.5124 3.99022C6.33251 3.97997 5.1958 4.43354 4.34709 5.25325L4.34529 5.25145ZM10.0729 10.9791C9.73996 11.3195 9.34281 11.5904 8.90444 11.7763C8.46606 11.9622 7.99517 12.0592 7.51903 12.0618C7.04289 12.0645 6.57096 11.9726 6.13056 11.7916C5.69016 11.6106 5.29005 11.344 4.95339 11.0072C4.61674 10.6705 4.35022 10.2704 4.16927 9.82995C3.98833 9.38952 3.89655 8.91757 3.89926 8.44143C3.90197 7.96529 3.9991 7.49441 4.18504 7.05607C4.37098 6.61773 4.64203 6.22062 4.98249 5.88775C5.66021 5.22516 6.57188 4.85656 7.51967 4.86195C8.46745 4.86733 9.37488 5.24627 10.045 5.91653C10.7152 6.58679 11.0939 7.49428 11.0991 8.44206C11.1044 9.38985 10.7356 10.3015 10.0729 10.9791Z" fill="white"/>
<path d="M10.2368 12.2706C10.0681 12.1017 9.9733 11.8727 9.97339 11.6339C9.97347 11.3952 10.0684 11.1663 10.2373 10.9975C10.4061 10.8287 10.6351 10.734 10.8739 10.7341C11.1126 10.7342 11.3416 10.8291 11.5103 10.998L14.0555 13.5441C14.1415 13.6271 14.21 13.7264 14.2572 13.8362C14.3044 13.946 14.3292 14.0641 14.3302 14.1836C14.3313 14.3031 14.3085 14.4216 14.2633 14.5322C14.218 14.6428 14.1512 14.7433 14.0667 14.8278C13.9822 14.9123 13.8817 14.9791 13.7711 15.0244C13.6605 15.0696 13.542 15.0924 13.4225 15.0914C13.303 15.0903 13.1849 15.0655 13.0751 15.0183C12.9653 14.9712 12.8659 14.9026 12.7829 14.8167L10.2368 12.2706Z" fill="white"/>
</svg>
