<svg width="24" height="19" viewBox="0 0 24 19" fill="none" xmlns="http://www.w3.org/2000/svg">
<path d="M3.157 14.9024H20.5278C20.7037 14.902 20.8761 14.8646 21.0264 14.7942C21.1768 14.7239 21.2994 14.6232 21.3811 14.5031C21.4628 14.383 21.5005 14.248 21.4901 14.1126C21.4797 13.9772 21.4216 13.8466 21.322 13.7348L12.6366 4.0603C12.2767 3.65918 11.4101 3.65918 11.0491 4.0603L2.36374 13.7348C2.2632 13.8464 2.20425 13.9771 2.19328 14.1127C2.18231 14.2483 2.21974 14.3836 2.30151 14.504C2.38327 14.6243 2.50625 14.7251 2.65708 14.7954C2.8079 14.8656 2.98081 14.9026 3.157 14.9024Z" fill="black"/>
</svg>
