<svg width="16" height="11" viewBox="0 0 16 11" fill="none" xmlns="http://www.w3.org/2000/svg">
<path d="M13.932 0H13.6073C13.5597 0.000254175 13.5132 0.0144729 13.4737 0.0408811C13.4341 0.0672892 13.4032 0.104718 13.3849 0.148499L8.99235 10.6653C8.97701 10.7019 8.97095 10.7417 8.97472 10.7812C8.97848 10.8207 8.99195 10.8587 9.01394 10.8918C9.03592 10.9249 9.06574 10.9521 9.10077 10.9709C9.1358 10.9898 9.17495 10.9998 9.21476 11H11.0407C11.4469 11.0001 11.844 10.8804 12.182 10.656C12.52 10.4315 12.7838 10.1124 12.9401 9.73885L15.8314 2.83699C15.9613 2.52549 16.0121 2.18687 15.9792 1.85113C15.9463 1.5154 15.8309 1.19293 15.643 0.912325C15.4551 0.631718 15.2007 0.401644 14.9022 0.2425C14.6038 0.0833559 14.2705 6.06292e-05 13.932 0Z" fill="#6F6E77"/>
<path d="M12.3753 0H9.32828C9.28068 0.000254175 9.2342 0.0144729 9.19464 0.0408811C9.15509 0.0672892 9.12422 0.104718 9.10588 0.148499L4.7111 10.6653C4.69576 10.7019 4.6897 10.7417 4.69347 10.7812C4.69723 10.8207 4.7107 10.8587 4.73269 10.8918C4.75467 10.9249 4.78449 10.9521 4.81952 10.9709C4.85455 10.9898 4.8937 10.9998 4.93351 11H7.97827C8.02588 10.9997 8.07236 10.9855 8.11191 10.9591C8.15146 10.9327 8.18233 10.8953 8.20068 10.8515L12.5977 0.330244C12.6121 0.293851 12.6174 0.254514 12.6132 0.215617C12.609 0.176719 12.5953 0.139425 12.5735 0.106939C12.5516 0.0744533 12.5221 0.0477479 12.4876 0.0291203C12.4531 0.0104927 12.4145 0.000499551 12.3753 0Z" fill="#6F6E77"/>
<path d="M8.08631 0.851111L7.79274 0.146296C7.77454 0.102582 7.74364 0.0652925 7.70401 0.0392237C7.66437 0.0131549 7.61782 -0.000500741 7.57033 1.41674e-05H4.5189C4.47953 -0.000414616 4.44068 0.00889575 4.40581 0.0271104C4.37094 0.045325 4.34115 0.0718752 4.31911 0.104382C4.29707 0.136889 4.28347 0.174337 4.27952 0.213371C4.27557 0.252405 4.2814 0.291805 4.29649 0.328042L6.11801 4.6877C6.13517 4.73263 6.16563 4.7713 6.20535 4.79858C6.24507 4.82587 6.29217 4.84048 6.34041 4.84048C6.38866 4.84048 6.43576 4.82587 6.47548 4.79858C6.5152 4.7713 6.54566 4.73263 6.56282 4.6877L8.08854 1.03286C8.10018 1.0039 8.10597 0.972949 8.10559 0.941763C8.10521 0.910576 8.09866 0.879771 8.08631 0.851111Z" fill="#6F6E77"/>
<path d="M3.51219 0.146296C3.494 0.102582 3.46309 0.0652925 3.42346 0.0392237C3.38382 0.0131549 3.33727 -0.000500741 3.28978 1.41674e-05H0.240577C0.201212 -0.000414616 0.162354 0.00889575 0.127487 0.0271104C0.0926199 0.045325 0.0628319 0.0718752 0.0407917 0.104382C0.0187515 0.136889 0.00514797 0.174337 0.00119985 0.213371C-0.00274826 0.252405 0.00308237 0.291805 0.0181695 0.328042L3.98147 9.81201C3.99863 9.85694 4.02909 9.89561 4.06881 9.9229C4.10853 9.95018 4.15564 9.96479 4.20388 9.96479C4.25212 9.96479 4.29922 9.95018 4.33894 9.9229C4.37866 9.89561 4.40912 9.85694 4.42629 9.81201L5.94755 6.15717C5.95954 6.12836 5.96572 6.09748 5.96572 6.0663C5.96572 6.03511 5.95954 6.00423 5.94755 5.97542L3.51219 0.146296Z" fill="#6F6E77"/>
</svg>
