<svg width="16" height="11" viewBox="0 0 16 11" fill="none" xmlns="http://www.w3.org/2000/svg">
<path d="M13.417 0H13.1043C13.0584 0.000245628 13.0136 0.0139862 12.9756 0.0395064C12.9375 0.0650266 12.9077 0.101197 12.8901 0.143506L8.65987 10.3067C8.6451 10.3421 8.63927 10.3805 8.64289 10.4187C8.64652 10.4569 8.65949 10.4936 8.68066 10.5255C8.70183 10.5575 8.73055 10.5838 8.76428 10.602C8.79801 10.6202 8.83572 10.6299 8.87406 10.6301H10.6325C11.0237 10.6302 11.4061 10.5145 11.7316 10.2976C12.0571 10.0808 12.3112 9.77239 12.4617 9.41137L15.2461 2.74159C15.3712 2.44057 15.4201 2.11333 15.3885 1.78889C15.3568 1.46444 15.2456 1.15282 15.0647 0.881647C14.8838 0.610476 14.6387 0.388138 14.3513 0.234345C14.0639 0.0805529 13.743 5.85905e-05 13.417 0Z" fill="black"/>
<path d="M11.9177 0H8.98335C8.9375 0.000245628 8.89274 0.0139862 8.85465 0.0395064C8.81656 0.0650266 8.78683 0.101197 8.76916 0.143506L4.53683 10.3067C4.52205 10.3421 4.51622 10.3805 4.51984 10.4187C4.52347 10.4569 4.53644 10.4936 4.55761 10.5255C4.57878 10.5575 4.60751 10.5838 4.64124 10.602C4.67497 10.6202 4.71267 10.6299 4.75101 10.6301H7.68323C7.72908 10.6299 7.77384 10.6161 7.81193 10.5906C7.85002 10.5651 7.87976 10.5289 7.89742 10.4866L12.1319 0.319139C12.1458 0.28397 12.1509 0.245956 12.1468 0.208366C12.1428 0.170777 12.1296 0.134737 12.1086 0.103343C12.0875 0.0719497 12.0591 0.0461424 12.0259 0.0281411C11.9926 0.0101399 11.9555 0.000482753 11.9177 0Z" fill="black"/>
<path d="M7.78809 0.822491L7.50537 0.141377C7.48785 0.0991326 7.45809 0.063097 7.41992 0.0379048C7.38175 0.0127126 7.33691 -0.000483903 7.29118 1.3691e-05H4.35253C4.31462 -0.000400674 4.2772 0.00859662 4.24363 0.0261988C4.21005 0.0438009 4.18136 0.0694584 4.16013 0.100872C4.13891 0.132286 4.12581 0.168475 4.12201 0.206196C4.1182 0.243917 4.12382 0.281993 4.13835 0.317011L5.89254 4.53007C5.90907 4.57349 5.9384 4.61086 5.97665 4.63723C6.0149 4.6636 6.06027 4.67772 6.10673 4.67772C6.15318 4.67772 6.19855 4.6636 6.2368 4.63723C6.27505 4.61086 6.30438 4.57349 6.32091 4.53007L7.79024 0.998125C7.80144 0.970147 7.80702 0.940233 7.80666 0.910095C7.80629 0.879957 7.79998 0.850188 7.78809 0.822491Z" fill="black"/>
<path d="M3.38237 0.141377C3.36485 0.0991326 3.33509 0.063097 3.29692 0.0379048C3.25875 0.0127126 3.21392 -0.000483903 3.16819 1.3691e-05H0.231685C0.193775 -0.000400674 0.156354 0.00859662 0.122775 0.0261988C0.0891965 0.0438009 0.0605095 0.0694584 0.0392839 0.100872C0.0180584 0.132286 0.00495769 0.168475 0.00115551 0.206196C-0.00264668 0.243917 0.00296844 0.281993 0.0174979 0.317011L3.83431 9.48207C3.85084 9.52549 3.88017 9.56286 3.91842 9.58923C3.95667 9.6156 4.00204 9.62972 4.0485 9.62972C4.09495 9.62972 4.14032 9.6156 4.17857 9.58923C4.21682 9.56286 4.24615 9.52549 4.26268 9.48207L5.72772 5.95013C5.73927 5.92229 5.74521 5.89245 5.74521 5.86231C5.74521 5.83217 5.73927 5.80233 5.72772 5.77449L3.38237 0.141377Z" fill="black"/>
</svg>
